<?xml version="1.0" encoding="UTF-8"?>
<svg id="Layer_1" data-name="Layer 1" xmlns="http://www.w3.org/2000/svg" viewBox="0 0 459.25 112">
  <path id="blue-icon" d="m3.54,83.83c-6.38-1.41-3.88-15.22,5.5-15.14.02,0,.04,0,.07,0,.12,0,.24,0,.36.01.04,0,.09,0,.13,0,.11,0,.21.01.32.03.06,0,.12.01.19.02.09.01.19.02.28.04.08.01.16.03.24.04.08.01.16.03.24.04.11.02.21.04.32.07.06.01.12.02.19.04.17.04.34.08.52.13,0,0,.01,0,.02,0,.45.12.89.25,1.34.38.03,0,.06.02.09.03.44.13.87.26,1.31.39.02,0,.03,0,.05.01,12.6,3.85,24.95,9.49,30.82.16l10.51-16.72,5.07-8.15c.82-1.31,2.55-1.7,3.86-.88,1.31.82,1.7,2.55.88,3.86l-4.3,6.94-14.07,22.38c-10.38,16.51-17.28,12.17-43.92,6.31Zm27.3-19.19l.57-3.22c.32-1.78-4.34-4.1-10.39-5.17-6.06-1.08-11.22-.5-11.54,1.28l-.57,3.22c-.32,1.78,4.34,4.1,10.39,5.17,6.06,1.08,11.22.5,11.54-1.28Z" style="fill: #179cc8;"/>
  <path id="purple-icon" d="m44.81,64.71c-.82,1.31-2.55,1.7-3.86.88-1.31-.82-1.7-2.55-.88-3.86l4.3-6.94,14.07-22.38c10.38-16.51,17.28-12.17,43.92-6.31,6.38,1.41,3.88,15.22-5.5,15.14-.02,0-.04,0-.07,0-.12,0-.24,0-.36-.01-.04,0-.09,0-.13,0-.11,0-.21-.01-.32-.03-.06,0-.12-.01-.19-.02-.09-.01-.19-.02-.28-.04-.08-.01-.16-.03-.24-.04-.08-.01-.16-.03-.24-.04-.11-.02-.21-.04-.32-.07-.06-.01-.12-.02-.19-.04-.17-.04-.34-.08-.52-.13,0,0-.01,0-.02,0-.45-.12-.89-.25-1.34-.38-.03,0-.06-.02-.09-.03-.44-.13-.87-.26-1.31-.39-.02,0-.03,0-.05-.01-12.6-3.85-24.95-9.49-30.82-.16l-10.51,16.72-5.07,8.15Zm51.61-12.3l.57-3.22c.32-1.78-4.34-4.1-10.39-5.17-6.06-1.08-11.22-.5-11.54,1.28l-.57,3.22c-.32,1.78,4.34,4.1,10.39,5.17,6.06,1.08,11.22.5,11.54-1.28Z" style="fill: #542a7d;"/>
  <path id="orange-icon" d="m59.72,67.85l-6.94-4.3-22.38-14.07c-16.51-10.38-12.17-17.28-6.31-43.92,1.41-6.38,15.22-3.88,15.14,5.5,0,.02,0,.04,0,.07,0,.12,0,.24-.01.36,0,.04,0,.09,0,.13,0,.11-.01.21-.03.32,0,.06-.01.12-.02.19-.01.09-.02.19-.04.28-.01.08-.03.16-.04.24-.01.08-.03.16-.04.24-.02.11-.04.21-.07.32-.01.06-.02.12-.04.19-.04.17-.08.34-.13.52,0,0,0,.01,0,.02-.12.45-.25.89-.38,1.34,0,.03-.02.06-.03.09-.13.44-.26.87-.39,1.31,0,.02,0,.03-.01.05-3.85,12.6-9.49,24.95-.16,30.82l16.72,10.51,8.15,5.07c1.31.82,1.7,2.55.88,3.86-.82,1.31-2.55,1.7-3.86.88Zm-16.44-34.99l3.22.57c1.78.32,4.1-4.34,5.17-10.39,1.08-6.06.5-11.22-1.28-11.54l-3.22-.57c-1.78-.32-4.1,4.34-5.17,10.39-1.08,6.06-.5,11.22,1.28,11.54Z" style="fill: #e1663b;"/>
  <path id="red-icon" d="m66.67,98.88s0-.04,0-.07c0-.12,0-.24.01-.36,0-.04,0-.09,0-.13,0-.11.01-.21.03-.32,0-.06.01-.12.02-.19.01-.09.02-.19.04-.28.01-.08.03-.16.04-.24.01-.08.03-.16.04-.24.02-.11.04-.21.07-.32.01-.06.02-.12.04-.19.04-.17.08-.34.13-.52,0,0,0-.01,0-.02.12-.45.25-.89.38-1.34,0-.03.02-.06.03-.09.13-.44.26-.87.39-1.31,0-.02,0-.03.01-.05,3.85-12.6,9.49-24.95.16-30.82l-16.72-10.51-8.15-5.07c-1.31-.82-1.7-2.55-.88-3.86.82-1.31,2.55-1.7,3.86-.88l6.94,4.3,22.38,14.07c16.51,10.38,12.17,17.28,6.31,43.92-1.41,6.38-15.22,3.88-15.14-5.5Zm-4.05-21.8l-3.22-.57c-1.78-.32-4.1,4.34-5.17,10.39-1.08,6.06-.5,11.22,1.28,11.54l3.22.57c1.78.32,4.1-4.34,5.17-10.39,1.08-6.06.5-11.22-1.28-11.54Z" style="fill: #db3a38;"/>
  <path id="hockey" d="m174.68,50.13v58.64c0,1.13-.92,2.05-2.05,2.05h-9.71c-1.13,0-2.05-.92-2.05-2.05v-23.9c0-1.13-.92-2.05-2.05-2.05h-18.08c-1.13,0-2.05.92-2.05,2.05v23.9c0,1.13-.92,2.05-2.05,2.05h-9.71c-1.13,0-2.05-.92-2.05-2.05v-58.64c0-1.13.92-2.05,2.05-2.05h9.71c1.13,0,2.05.92,2.05,2.05v19.9c0,1.13.92,2.05,2.05,2.05h18.08c1.13,0,2.05-.92,2.05-2.05v-19.9c0-1.13.92-2.05,2.05-2.05h9.71c1.13,0,2.05.92,2.05,2.05Zm53.42-.33c3.85,1.94,6.64,5.26,8.37,9.96,1.73,4.7,2.59,11.26,2.59,19.69s-.86,14.99-2.59,19.69c-1.73,4.7-4.52,8.02-8.37,9.96-3.85,1.94-9.17,2.91-15.96,2.91s-12.09-.97-15.91-2.91c-3.82-1.94-6.59-5.24-8.32-9.91-1.73-4.67-2.59-11.25-2.59-19.73s.86-15.06,2.59-19.73c1.73-4.67,4.5-7.97,8.32-9.91,3.82-1.94,9.12-2.91,15.91-2.91s12.11.97,15.96,2.91Zm-23.42,10.19c-1.76,1.27-3,3.43-3.73,6.46-.73,3.03-1.09,7.37-1.09,13s.36,9.97,1.09,13c.73,3.03,1.97,5.18,3.73,6.46,1.76,1.27,4.24,1.91,7.46,1.91s5.7-.64,7.46-1.91c1.76-1.27,3-3.42,3.73-6.46.73-3.03,1.09-7.37,1.09-13s-.36-9.97-1.09-13c-.73-3.03-1.97-5.18-3.73-6.46-1.76-1.27-4.24-1.91-7.46-1.91s-5.7.64-7.46,1.91Zm79.52-12.55c2.12.24,4.37.65,6.75,1.2,1,.24,1.67,1.2,1.55,2.23l-.76,6.65c-.12,1.07-1.06,1.87-2.14,1.82-4.5-.23-9.75-.35-15.73-.35-3.09,0-5.49.61-7.18,1.82-1.7,1.21-2.9,3.27-3.59,6.18-.7,2.91-1.05,7.06-1.05,12.46s.35,9.55,1.05,12.46c.7,2.91,1.89,4.97,3.59,6.18,1.7,1.21,4.09,1.82,7.18,1.82,4.61,0,8.26-.05,10.96-.14,1.99-.07,3.96-.21,5.91-.43,1.13-.13,2.15.66,2.28,1.8l.75,6.49c.11,1-.51,1.95-1.48,2.22-2.42.66-4.84,1.15-7.28,1.47-3,.39-6.72.59-11.14.59-6.55,0-11.73-1.05-15.55-3.14-3.82-2.09-6.58-5.49-8.27-10.18-1.7-4.7-2.55-11.08-2.55-19.14s.85-14.44,2.55-19.14c1.7-4.7,4.46-8.09,8.27-10.19,3.82-2.09,9-3.14,15.55-3.14,4.24,0,7.68.15,10.32.45Zm37.24,35.74h-5.36c.42,2.43.64,4.43.64,6v19.59c0,1.13-.92,2.05-2.05,2.05h-9.71c-1.13,0-2.05-.92-2.05-2.05v-58.64c0-1.13.92-2.05,2.05-2.05h9.71c1.13,0,2.05.92,2.05,2.05v15.68c0,2.67-.21,5.15-.64,7.46h5.27l15.4-24.24c.38-.59,1.03-.95,1.73-.95h10.1c1.63,0,2.61,1.8,1.72,3.17l-14.13,21.84c-1.03,1.82-2.55,3.49-4.55,5v.36c.97.67,1.94,1.5,2.91,2.5.97,1,1.76,2.02,2.36,3.05l14.62,23.69c.84,1.37-.14,3.13-1.75,3.13h-10.62c-.72,0-1.39-.38-1.76-1l-15.95-26.65Zm79.69,18.75l.39,6.29c.07,1.1-.74,2.07-1.84,2.17-3.22.3-6.69.49-10.41.57-4.49.09-10.06.14-16.73.14-4.18,0-7.52-1.14-10-3.41-2.49-2.27-3.76-5.35-3.82-9.23v-38.01c.06-3.88,1.33-6.96,3.82-9.23,2.48-2.27,5.82-3.41,10-3.41,6.67,0,12.24.05,16.73.14,3.72.08,7.19.27,10.41.57,1.1.1,1.9,1.07,1.84,2.17l-.4,6.38c-.07,1.08-.96,1.93-2.05,1.93h-22.17c-1.52,0-2.61.36-3.27,1.09-.67.73-1,1.91-1,3.55v9.55h22.95c1.13,0,2.05.92,2.05,2.05v5.9c0,1.13-.92,2.05-2.05,2.05h-22.95v12.09c0,1.7.33,2.91,1,3.64.67.73,1.76,1.09,3.27,1.09h22.17c1.08,0,1.98.84,2.05,1.93Zm38.8-11.93v18.77c0,1.13-.92,2.05-2.05,2.05h-9.81c-1.13,0-2.05-.92-2.05-2.05v-18.77l-19.27-38.96c-.68-1.36.32-2.96,1.84-2.96h9.83c.81,0,1.54.47,1.87,1.2l9.91,21.8c.61,1.39,1.14,2.97,1.59,4.73.45,1.76.71,2.82.77,3.18h.91c.73-3.27,1.49-5.91,2.27-7.91l9.91-21.8c.33-.73,1.06-1.2,1.87-1.2h9.66c1.52,0,2.51,1.59,1.84,2.96l-19.1,38.96Z" style="fill: #4d4d4f;"/>
  <path id="WeAreAll" d="m165.53,36.01c-.14.47-.39.84-.75,1.13-.36.29-.81.43-1.34.43h-5.97c-.5,0-.95-.15-1.34-.46-.39-.3-.64-.69-.75-1.16l-5.38-27.25c-.36-1.86-.61-3.26-.75-4.19h-1.13l-.27,1.4c-.18,1.18-.36,2.11-.54,2.79l-5.32,27.25c-.07.47-.31.85-.7,1.16-.39.3-.86.46-1.4.46h-6.02c-.5,0-.94-.14-1.32-.43s-.62-.66-.73-1.13L124.96,1.64c-.12-.6.34-1.16.95-1.16h3.71c.47,0,.87.33.95.79l5.17,27.48c.21,1.15.38,2.35.48,3.6l.16,1.13h1.24c.18-1.54.45-3.12.81-4.73l5.32-26.5c.11-.54.34-.97.7-1.29.36-.32.81-.48,1.34-.48h5.75c.5,0,.94.17,1.32.51.38.34.62.76.73,1.26l5.27,26.55c.29,1.43.55,2.99.81,4.68h1.24l.32-2.26c.14-1.08.27-1.86.38-2.36l5.17-27.59c.09-.46.49-.79.95-.79h3.71c.61,0,1.07.56.95,1.16l-6.86,34.37Zm41.44-1.99l.15,2.27c.03.53-.36.99-.89,1.03-1.87.14-3.84.23-5.9.27-2.42.05-5.44.08-9.06.08-2.29,0-4.1-.6-5.43-1.8-1.33-1.2-2.01-2.82-2.04-4.86V7.04c.04-2.04.72-3.66,2.04-4.86,1.33-1.2,3.14-1.8,5.43-1.8,3.62,0,6.64.03,9.06.08,2.07.05,4.03.14,5.9.27.53.04.92.5.89,1.03l-.15,2.33c-.03.51-.46.91-.97.91h-13.82c-1.07,0-1.84.26-2.28.78-.45.52-.67,1.41-.67,2.66v6.45c0,.54.43.97.97.97h13.7c.54,0,.97.43.97.97v2.41c0,.54-.43.97-.97.97h-13.7c-.54,0-.97.43-.97.97v8.49c0,1.25.22,2.14.67,2.66.45.52,1.21.78,2.28.78h13.82c.51,0,.93.4.97.91Zm47.76-7.63h-13.35c-.43,0-.8.28-.93.68l-3.02,9.81c-.13.41-.5.68-.93.68h-3.43c-.66,0-1.13-.64-.92-1.27L243.35,1.93c.14-.47.38-.82.73-1.07.34-.25.76-.38,1.26-.38h5.48c.46,0,.88.13,1.24.4.36.27.59.62.7,1.05l11.25,34.36c.21.63-.26,1.27-.92,1.27h-3.48c-.43,0-.8-.28-.93-.68l-3.02-9.81c-.13-.41-.5-.68-.93-.68Zm-2.04-4.68c.65,0,1.12-.63.93-1.25l-3.92-12.83-.7-2.32c-.12-.41-.5-.69-.93-.69h0c-.43,0-.81.29-.93.7l-.66,2.31-3.97,12.83c-.19.62.27,1.26.93,1.26h9.25Zm47.36,15.86h-3.71c-.44,0-.82-.29-.94-.71l-2.98-10.84c-.43-1.33-1.01-2.28-1.75-2.85-.74-.57-1.71-.86-2.93-.86-2.98,0-5.2-.01-6.65-.03-.54,0-.98.43-.98.97v13.36c0,.54-.43.97-.97.97h-3.38c-.54,0-.97-.43-.97-.97V1.36c0-.5.38-.92.88-.97,1.61-.16,3.16-.27,4.63-.31,1.74-.05,4.22-.08,7.44-.08,3.01,0,5.39.32,7.15.97,1.76.65,3.04,1.75,3.87,3.31.82,1.56,1.24,3.72,1.24,6.48,0,2.97-.53,5.21-1.59,6.72-1.06,1.5-2.8,2.42-5.24,2.74v.27c1.04.29,1.99.88,2.85,1.77.86.9,1.47,2.1,1.83,3.6l3.12,10.47c.19.62-.28,1.25-.93,1.25Zm-8.24-20.53c.99-.39,1.69-1.06,2.12-1.99.43-.93.64-2.26.64-3.98s-.21-3.04-.64-3.95c-.43-.91-1.14-1.56-2.12-1.93-.99-.38-2.37-.56-4.17-.56-2.93,0-5.12.01-6.57.03-.53,0-.95.44-.95.97v11.09c0,.54.43.97.97.97h6.55c1.79-.04,3.18-.25,4.17-.64Zm44.53,16.98l.15,2.27c.03.53-.36.99-.89,1.03-1.87.14-3.84.23-5.9.27-2.42.05-5.44.08-9.06.08-2.29,0-4.1-.6-5.43-1.8-1.33-1.2-2.01-2.82-2.04-4.86V7.04c.04-2.04.72-3.66,2.04-4.86,1.32-1.2,3.13-1.8,5.43-1.8,3.62,0,6.64.03,9.06.08,2.07.05,4.03.14,5.9.27.53.04.92.5.89,1.03l-.15,2.33c-.03.51-.46.91-.97.91h-13.82c-1.07,0-1.84.26-2.28.78-.45.52-.67,1.41-.67,2.66v6.45c0,.54.43.97.97.97h13.7c.54,0,.97.43.97.97v2.41c0,.54-.43.97-.97.97h-13.7c-.54,0-.97.43-.97.97v8.49c0,1.25.22,2.14.67,2.66.45.52,1.21.78,2.28.78h13.82c.51,0,.93.4.97.91Zm47.76-7.63h-13.35c-.43,0-.8.28-.93.68l-3.02,9.81c-.13.41-.5.68-.93.68h-3.43c-.66,0-1.13-.64-.92-1.27l11.2-34.36c.14-.47.38-.82.73-1.07.34-.25.76-.38,1.26-.38h5.48c.46,0,.88.13,1.24.4.36.27.59.62.7,1.05l11.25,34.36c.21.63-.26,1.27-.92,1.27h-3.48c-.43,0-.8-.28-.93-.68l-3.02-9.81c-.13-.41-.5-.68-.93-.68Zm-2.04-4.68c.65,0,1.12-.63.93-1.25l-3.92-12.83-.7-2.32c-.12-.41-.5-.69-.93-.69h0c-.43,0-.81.29-.93.7l-.66,2.31-3.97,12.83c-.19.62.27,1.26.93,1.26h9.25Zm27.38,7.9c0,1.25.25,2.14.75,2.66.5.52,1.38.78,2.63.78h12.26c.51,0,.93.4.97.91l.15,2.28c.03.53-.36.99-.88,1.03-3.38.27-7.83.4-13.35.4s-7.9-2.44-7.9-7.31V1.45c0-.54.43-.97.97-.97h3.43c.54,0,.97.43.97.97v28.16Zm33.06,0c0,1.25.25,2.14.75,2.66.5.52,1.38.78,2.63.78h12.26c.51,0,.93.4.97.91l.15,2.28c.03.53-.36.99-.88,1.03-3.38.27-7.83.4-13.35.4s-7.9-2.44-7.9-7.31V1.45c0-.54.43-.97.97-.97h3.43c.54,0,.97.43.97.97v28.16Z" style="fill: #67686a;"/>
</svg>