<?xml version="1.0" encoding="UTF-8"?><svg id="Camada_1" xmlns="http://www.w3.org/2000/svg" viewBox="0 0 300 300"><path id="blue-icon" d="m111.07,298.25c-14.75,9.43-36.18-21.48-18.27-39.09.04-.04.08-.08.13-.12.23-.22.46-.44.7-.66.09-.08.18-.16.26-.23.21-.19.43-.37.65-.56.13-.11.26-.21.39-.32.2-.16.4-.31.6-.47.17-.13.36-.26.54-.39.18-.13.35-.26.54-.38.24-.16.48-.32.73-.48.14-.09.28-.19.43-.28.4-.25.81-.49,1.23-.73.01,0,.03-.01.04-.02,1.08-.61,2.17-1.22,3.27-1.81.07-.04.14-.08.21-.12,1.07-.58,2.14-1.16,3.22-1.74.04-.02.08-.04.12-.06,31.16-16.56,65.24-29.28,58.69-58.07l-11.75-51.58-5.84-25.03c-.92-4.04,1.61-8.06,5.65-8.98,4.04-.92,8.06,1.61,8.98,5.65l4.99,21.29,15.73,69.04c11.6,50.94-9.68,55.78-71.23,95.13Zm15.37-88.05l-5.02-7.19c-2.77-3.97-15.97.45-29.48,9.89-13.51,9.43-22.21,20.3-19.43,24.27l5.02,7.19c2.77,3.97,15.97-.45,29.48-9.89,13.51-9.43,22.21-20.3,19.43-24.27Z" style="fill:#179cc8;"/><path id="purple-icon" d="m153.04,183.88c.92,4.04-1.61,8.06-5.65,8.98-4.04.92-8.06-1.61-8.98-5.65l-4.99-21.29-15.73-69.04c-11.6-50.94,9.68-55.78,71.23-95.13,14.75-9.43,36.18,21.48,18.27,39.09-.04.04-.08.08-.13.12-.23.22-.46.44-.7.66-.09.08-.18.16-.26.23-.21.19-.43.37-.65.56-.13.11-.26.21-.39.32-.2.16-.4.31-.6.47-.17.13-.36.26-.54.39-.18.13-.35.26-.54.38-.24.16-.48.32-.73.48-.14.09-.28.19-.43.28-.4.25-.81.49-1.23.73-.01,0-.03.01-.04.02-1.08.61-2.17,1.22-3.27,1.81-.07.04-.14.08-.21.12-1.07.58-2.14,1.16-3.22,1.74-.04.02-.08.04-.12.06-31.16,16.56-65.24,29.28-58.69,58.07l11.75,51.58,5.84,25.03Zm74.45-121.05l-5.02-7.19c-2.77-3.97-15.97.45-29.48,9.89-13.51,9.43-22.2,20.3-19.43,24.27l5.02,7.19c2.77,3.97,15.97-.45,29.48-9.89,13.51-9.43,22.21-20.3,19.43-24.27Z" style="fill:#542a7d;"/><path id="orange-icon" d="m187.21,161.59l-21.29,4.99-69.04,15.73c-50.94,11.61-55.78-9.68-95.13-71.23-9.43-14.75,21.48-36.18,39.09-18.27.04.04.08.08.12.13.22.23.44.46.66.7.08.09.16.18.23.26.19.21.37.43.56.65.11.13.21.26.32.39.16.2.31.4.47.6.13.17.26.36.39.54.13.18.26.35.38.54.16.24.32.48.48.73.09.14.19.28.28.43.25.4.49.81.73,1.23,0,.01.01.03.02.04.61,1.08,1.22,2.17,1.82,3.27.04.07.08.14.12.21.58,1.07,1.16,2.14,1.74,3.22.02.04.04.08.06.12,16.56,31.16,29.28,65.24,58.07,58.69l51.58-11.75,25.03-5.84c4.04-.92,8.06,1.61,8.98,5.65.92,4.04-1.61,8.06-5.65,8.98Zm-97.41-35.15l7.19-5.02c3.97-2.77-.45-15.97-9.88-29.48-9.43-13.51-20.3-22.21-24.27-19.43l-7.19,5.02c-3.97,2.77.45,15.97,9.88,29.48,9.43,13.51,20.3,22.21,24.27,19.43Z" style="fill:#e1663b;"/><path id="red-icon" d="m259.16,207.2s-.08-.08-.12-.13c-.22-.23-.44-.46-.66-.7-.08-.09-.16-.18-.23-.26-.19-.21-.37-.43-.56-.65-.11-.13-.21-.26-.32-.39-.16-.2-.31-.4-.47-.6-.13-.17-.26-.36-.39-.54-.13-.18-.26-.35-.38-.54-.16-.24-.32-.48-.48-.73-.09-.14-.19-.28-.28-.43-.25-.4-.49-.81-.73-1.23,0-.01-.01-.03-.02-.04-.61-1.08-1.22-2.17-1.82-3.27-.04-.07-.08-.14-.12-.21-.58-1.07-1.16-2.14-1.74-3.22-.02-.04-.04-.08-.06-.12-16.56-31.16-29.28-65.24-58.07-58.69l-51.58,11.75-25.03,5.84c-4.04.92-8.06-1.61-8.98-5.65-.92-4.04,1.61-8.06,5.65-8.98l21.29-4.99,69.04-15.73c50.94-11.6,55.79,9.68,95.13,71.23,9.43,14.75-21.48,36.18-39.09,18.27Zm-48.96-33.64l-7.19,5.02c-3.97,2.77.45,15.97,9.89,29.48,9.43,13.51,20.3,22.21,24.27,19.43l7.19-5.02c3.97-2.77-.45-15.97-9.89-29.48-9.43-13.51-20.3-22.21-24.27-19.43Z" style="fill:#db3a38;"/></svg>